<?xml version="1.0" standalone="no"?>
<!DOCTYPE svg PUBLIC "-//W3C//DTD SVG 20010904//EN"
 "http://www.w3.org/TR/2001/REC-SVG-20010904/DTD/svg10.dtd">
<svg version="1.0" xmlns="http://www.w3.org/2000/svg"
 width="998.000000pt" height="937.000000pt" viewBox="0 0 998.000000 937.000000"
 preserveAspectRatio="xMidYMid meet">

<g transform="translate(0.000000,937.000000) scale(0.100000,-0.100000)"
fill="#000000" stroke="none">
<path d="M5015 8363 c-200 -7 -451 -23 -513 -33 -157 -25 -557 -132 -622 -165
-16 -8 -34 -15 -40 -15 -7 0 -26 -7 -43 -15 -18 -8 -57 -23 -89 -35 -155 -57
-485 -239 -678 -375 -19 -13 -50 -35 -68 -47 -18 -13 -48 -36 -67 -53 -18 -16
-59 -50 -91 -75 -76 -60 -372 -360 -459 -465 -38 -47 -75 -91 -81 -97 -32 -39
-165 -227 -200 -285 -78 -127 -180 -328 -250 -488 -30 -69 -114 -295 -114
-307 0 -7 -10 -40 -21 -73 -38 -113 -93 -367 -120 -550 -43 -292 -43 -743 0
-985 5 -30 17 -98 26 -150 9 -52 25 -123 35 -156 11 -34 20 -71 20 -82 0 -12
4 -31 9 -44 5 -13 19 -57 31 -98 47 -159 153 -440 180 -475 4 -5 40 -73 80
-150 40 -77 89 -167 110 -200 20 -33 43 -71 51 -85 8 -14 16 -27 19 -30 3 -3
20 -27 39 -55 68 -99 127 -178 185 -248 59 -73 267 -289 321 -334 17 -14 60
-53 96 -87 108 -101 133 -122 205 -172 38 -26 71 -51 74 -54 11 -15 236 -153
352 -216 196 -108 219 -119 298 -149 41 -15 80 -31 85 -35 6 -4 59 -25 120
-45 60 -20 117 -41 127 -46 18 -10 299 -80 388 -97 30 -6 80 -16 110 -22 120
-23 309 -34 595 -34 290 0 477 13 630 44 28 5 78 14 112 20 34 5 81 17 105 25
24 8 52 15 62 15 21 0 283 84 386 123 36 14 110 46 165 72 55 26 133 62 173
81 40 19 93 47 117 64 24 16 46 30 49 30 9 0 131 75 134 82 2 5 9 8 16 8 7 0
21 8 32 18 10 9 33 26 49 36 28 17 174 125 185 136 3 3 32 27 65 55 33 27 62
52 65 55 3 3 35 29 71 57 36 29 112 103 168 165 57 62 124 136 150 163 122
133 344 459 451 665 109 209 256 603 290 780 5 25 14 65 20 90 12 54 29 143
41 225 5 33 14 96 21 140 7 48 12 208 12 400 1 405 -12 536 -85 828 -10 43
-19 86 -19 96 0 37 -116 384 -178 531 -54 130 -124 273 -166 344 -20 32 -36
60 -36 62 0 13 -209 318 -259 380 -14 17 -35 44 -46 60 -11 15 -50 60 -86 99
-36 38 -83 90 -105 115 -21 24 -75 79 -119 121 -77 73 -108 101 -205 179 -24
19 -48 40 -54 46 -6 5 -39 29 -72 52 -34 23 -68 48 -76 56 -41 41 -330 208
-513 296 -190 92 -543 210 -755 253 -69 14 -138 28 -155 31 -111 23 -482 37
-740 29z m535 -38 c680 -93 1261 -342 1794 -769 125 -100 375 -348 482 -478
469 -568 740 -1235 805 -1978 15 -171 6 -551 -16 -720 -89 -679 -357 -1295
-789 -1818 -103 -124 -334 -355 -458 -458 -523 -432 -1131 -696 -1818 -789
-161 -22 -553 -31 -720 -16 -743 65 -1413 337 -1978 805 -124 103 -355 334
-458 458 -435 526 -697 1131 -791 1828 -25 192 -26 668 0 860 108 806 448
1501 1011 2066 358 358 768 624 1246 807 301 115 597 182 985 221 96 10 595
-3 705 -19z"/>
<path d="M4805 8253 c-236 -20 -532 -82 -775 -163 -1104 -364 -1950 -1262
-2251 -2389 -17 -62 -27 -117 -22 -121 7 -7 1052 -290 1071 -290 4 0 14 28 21
63 7 34 32 121 56 192 117 356 296 647 565 915 260 260 538 435 879 554 444
154 953 169 1398 40 390 -113 715 -305 1003 -594 301 -300 490 -627 605 -1044
28 -103 36 -121 51 -118 39 7 1056 280 1061 285 2 3 -9 56 -26 119 -271 1015
-983 1847 -1944 2272 -322 142 -694 240 -1056 276 -94 9 -539 12 -636 3z m550
-292 c100 -45 152 -153 142 -295 -8 -133 -61 -224 -154 -263 -44 -18 -155 -17
-201 2 -103 44 -161 163 -149 304 11 127 57 209 139 250 56 27 165 29 223 2z
m-547 -38 c69 -50 77 -140 18 -199 l-32 -32 36 -6 c75 -12 117 -75 108 -161
-12 -106 -116 -157 -370 -180 -76 -7 -78 -7 -87 16 -7 19 -5 26 10 33 10 5 20
14 22 20 5 14 -57 408 -67 424 -4 7 -16 12 -27 12 -19 0 -26 24 -11 47 4 6 54
21 112 32 132 25 248 23 288 -6z m1132 -54 c56 -25 95 -62 123 -114 17 -31 22
-57 22 -120 0 -196 -109 -335 -262 -335 -71 0 -133 23 -186 69 -131 116 -73
414 98 504 44 24 149 21 205 -4z m-1849 -90 c6 -13 6 -19 0 -19 -21 0 -30 -41
-41 -196 l-12 -160 32 -63 32 -63 38 5 c32 4 40 2 45 -14 4 -10 3 -24 0 -30
-12 -19 -218 -110 -236 -104 -29 10 -31 35 -4 57 31 24 31 30 1 94 -21 45 -38
61 -162 149 -90 63 -150 99 -169 100 -24 2 -31 7 -33 29 -3 24 4 29 94 71 53
25 102 45 109 45 6 0 20 -9 30 -20 16 -18 16 -20 1 -26 -37 -14 -18 -50 56
-107 40 -31 76 -53 81 -48 4 4 6 50 5 102 l-3 94 -27 3 c-23 3 -28 8 -28 31 0
25 8 32 78 63 81 37 96 38 113 7z m2299 -74 c50 -25 90 -52 90 -59 0 -31 -11
-43 -35 -38 -21 4 -28 -5 -65 -78 -23 -45 -38 -86 -33 -91 9 -9 186 72 198 90
4 7 -1 21 -10 31 -15 16 -15 22 -5 35 19 23 46 18 119 -21 81 -44 92 -53 85
-80 -5 -19 -11 -21 -42 -17 -28 3 -58 -5 -122 -32 -47 -20 -100 -43 -118 -50
l-33 -14 21 -41 c11 -22 25 -77 31 -123 5 -45 17 -101 25 -125 13 -34 13 -46
4 -57 -28 -33 -110 -4 -147 51 -13 21 -19 57 -23 151 -4 68 -11 128 -16 133
-6 6 -23 -14 -47 -60 -41 -78 -44 -92 -22 -110 14 -12 13 -16 -6 -36 l-21 -23
-88 44 c-49 25 -91 49 -95 55 -13 21 6 50 33 50 25 0 34 13 122 189 90 181 93
191 80 216 -13 24 -13 28 5 41 10 8 20 14 22 14 2 0 44 -20 93 -45z m-2904
-257 c33 -36 64 -78 64 -89 0 -4 -11 -14 -25 -23 -25 -16 -28 -16 -59 3 -19
12 -50 21 -73 21 -72 0 -108 -65 -62 -111 20 -20 27 -21 113 -13 168 15 220 5
265 -52 67 -85 35 -205 -72 -267 -24 -14 -56 -29 -71 -33 -17 -4 -36 -20 -48
-40 l-20 -34 -26 19 c-15 11 -52 45 -82 76 l-55 57 34 29 c30 25 37 27 50 15
56 -48 140 -60 185 -25 32 25 35 68 6 94 -17 15 -33 17 -148 10 -148 -8 -180
1 -231 63 -58 69 -48 155 26 223 24 22 63 48 88 59 24 10 51 30 60 44 20 30
33 26 81 -26z m3445 -65 c44 -31 79 -62 79 -69 0 -30 -12 -44 -35 -38 -28 7
-23 13 -165 -181 -105 -143 -122 -176 -100 -190 17 -10 11 -25 -14 -36 -21
-10 -33 -5 -105 47 -45 31 -81 63 -81 70 0 31 12 43 39 38 27 -6 35 4 148 158
65 89 122 171 125 180 4 9 0 22 -8 29 -13 10 -12 14 2 30 10 11 22 19 27 19 5
0 45 -25 88 -57z m261 -201 c71 -77 72 -83 18 -306 -22 -91 -40 -169 -40 -173
0 -4 43 35 95 87 92 92 109 122 85 146 -7 7 -2 15 15 24 25 13 28 11 90 -50
36 -36 65 -69 65 -75 0 -6 -6 -20 -14 -31 -12 -15 -17 -17 -27 -6 -7 6 -19 12
-27 12 -8 0 -96 -77 -194 -172 -196 -187 -194 -186 -230 -116 l-19 35 46 206
c25 113 45 210 45 214 0 4 -47 -39 -105 -97 -98 -98 -119 -130 -95 -145 16
-10 12 -21 -14 -33 -21 -9 -29 -4 -85 52 -33 34 -61 69 -61 78 0 21 26 43 35
28 19 -30 55 -5 192 133 79 78 146 145 150 150 3 4 0 19 -7 33 -12 22 -12 27
0 34 27 17 46 10 82 -28z m-4067 -247 c217 -100 244 -108 286 -91 11 5 19 -1
27 -20 12 -25 9 -30 -65 -105 -74 -77 -94 -88 -122 -70 -10 6 -11 13 -2 29 9
17 7 25 -11 42 -12 11 -27 20 -33 20 -14 0 -125 -114 -125 -127 0 -20 42 -54
59 -48 30 13 43 10 52 -12 7 -20 -1 -33 -52 -88 -34 -36 -68 -65 -75 -65 -12
0 -12 -4 -4 -21 9 -16 8 -23 -4 -32 -8 -7 -58 -84 -112 -172 -53 -88 -98 -162
-100 -164 -2 -2 -15 -1 -29 3 -21 5 -25 12 -23 37 3 31 -2 35 -177 141 -178
109 -180 110 -207 95 -26 -15 -29 -15 -42 5 -9 12 -14 24 -12 27 2 3 39 65 83
136 44 72 83 143 87 158 3 15 14 31 22 34 19 7 121 -15 129 -28 3 -5 3 -24 -1
-44 -6 -31 -10 -35 -38 -35 -17 0 -42 -7 -54 -16 -21 -15 -77 -93 -70 -98 18
-13 70 -47 100 -65 l37 -22 21 33 c24 40 25 52 5 72 -18 17 -10 42 17 57 27
14 148 -56 148 -86 0 -35 -17 -50 -53 -47 -30 3 -37 -1 -55 -31 l-20 -35 74
-46 c41 -25 78 -46 83 -46 12 0 61 94 61 117 0 11 -11 36 -24 55 l-24 35 21
37 c12 20 24 36 29 36 4 0 23 -13 41 -30 44 -38 57 -38 57 2 0 42 -196 411
-213 402 -7 -4 -22 -16 -34 -26 -21 -20 -21 -20 -39 7 -17 26 -16 27 17 63 78
86 124 132 129 132 3 0 109 -47 235 -105z m4523 -331 c61 -30 96 -69 130 -144
14 -30 35 -66 48 -80 18 -20 20 -28 11 -41 -18 -23 -117 -99 -130 -99 -7 0
-20 14 -29 31 -17 29 -17 31 4 60 24 32 28 91 9 127 -6 12 -26 29 -43 38 -40
21 -100 7 -182 -43 -140 -85 -181 -152 -139 -224 24 -40 45 -44 93 -17 45 26
56 48 40 78 -14 26 -7 36 26 43 24 4 31 -3 75 -72 62 -96 68 -116 41 -144 -20
-20 -22 -20 -41 -3 -18 17 -21 17 -48 0 -15 -10 -43 -31 -61 -48 l-33 -31 -45
25 c-50 26 -99 80 -135 150 -19 36 -24 61 -24 120 0 90 21 135 88 197 109 100
240 130 345 77z"/>
<path d="M5223 7908 c-44 -21 -66 -89 -71 -222 -4 -138 7 -187 50 -219 41 -31
76 -15 108 48 22 44 25 66 29 174 4 147 -7 194 -49 216 -33 17 -37 17 -67 3z"/>
<path d="M4602 7873 c-13 -5 -12 -19 10 -131 10 -53 10 -53 41 -47 66 13 95
81 62 144 -18 35 -71 51 -113 34z"/>
<path d="M4636 7621 c-5 -7 21 -191 27 -197 10 -10 86 20 105 41 37 43 22 124
-29 150 -31 16 -95 20 -103 6z"/>
<path d="M5814 7795 c-49 -49 -104 -219 -104 -320 0 -139 124 -140 178 -3 32
81 53 174 54 240 1 48 -3 63 -22 83 -31 33 -73 33 -106 0z"/>
<path d="M2946 6833 c15 -27 42 -72 60 -100 l34 -53 41 44 c22 25 41 48 41 52
0 9 -172 103 -190 104 -10 0 -5 -15 14 -47z"/>
<path d="M4970 6620 c-63 -17 -350 -90 -638 -163 -288 -74 -528 -139 -534
-145 -8 -8 -8 -15 -3 -21 6 -5 147 -44 314 -86 l305 -77 105 26 c191 46 330
59 581 52 124 -3 245 -10 270 -15 33 -7 14 -8 -75 -4 -265 11 -606 -38 -822
-118 l-53 -20 0 -94 c0 -52 3 -96 8 -99 4 -2 57 9 118 24 199 51 315 64 569
64 246 0 366 -15 575 -68 52 -13 98 -22 102 -20 5 3 8 65 8 138 l0 134 125 31
c68 17 129 31 135 31 6 0 10 -81 10 -235 0 -150 -4 -235 -10 -235 -6 0 -10
-27 -10 -60 l0 -60 40 0 40 0 0 54 c0 30 -4 58 -10 61 -6 4 -10 98 -10 249 l0
242 155 39 c85 22 157 46 160 53 8 21 89 -1 -1119 306 -99 25 -189 46 -200 46
-12 -1 -73 -14 -136 -30z"/>
<path d="M4150 4731 l0 -761 44 0 c69 0 282 -30 365 -51 114 -29 227 -97 409
-246 36 -29 69 -53 74 -53 12 0 9 1489 -3 1512 -16 30 -200 189 -277 239 -40
26 -96 55 -125 63 -75 22 -232 44 -369 52 l-118 7 0 -762z"/>
<path d="M5845 5478 c-137 -14 -271 -44 -328 -74 -71 -36 -115 -69 -234 -176
l-103 -92 0 -763 0 -763 78 65 c109 93 269 199 337 224 70 26 244 57 378 67
l97 7 0 758 0 759 -67 -1 c-38 -1 -108 -6 -158 -11z"/>
<path d="M3960 4621 l0 -760 58 -11 c141 -28 424 -101 500 -129 45 -16 166
-73 267 -125 102 -52 185 -92 185 -88 0 4 -8 33 -18 64 -21 66 -37 80 -214
183 -163 94 -289 129 -555 151 l-83 7 0 727 c0 655 -2 728 -16 734 -9 3 -40 6
-70 6 l-54 0 0 -759z"/>
<path d="M6137 5373 c-4 -3 -7 -334 -7 -733 l0 -727 -92 -8 c-144 -11 -320
-42 -394 -70 -70 -26 -281 -147 -331 -189 -19 -16 -35 -42 -42 -70 -6 -24 -13
-51 -17 -60 -4 -10 73 24 199 88 241 123 405 177 750 246 l57 11 0 760 0 759
-58 0 c-32 0 -62 -3 -65 -7z"/>
<path d="M2133 5138 l-49 -153 -159 -5 -160 -5 123 -89 c67 -48 124 -92 127
-96 2 -4 -18 -74 -45 -155 -27 -82 -49 -150 -47 -151 1 -2 61 40 132 92 71 52
130 94 130 94 0 0 59 -42 130 -94 71 -52 131 -94 132 -92 2 1 -20 69 -47 151
-27 81 -47 151 -45 155 3 4 60 48 127 96 l123 89 -160 5 -159 5 -48 149 c-26
82 -50 151 -52 153 -3 3 -26 -64 -53 -149z"/>
<path d="M3790 4490 l0 -760 48 0 c65 0 274 -28 344 -46 31 -8 119 -37 195
-65 242 -89 443 -157 443 -150 0 4 -20 28 -45 54 -75 79 -375 208 -560 240
-79 14 -271 37 -311 37 -12 0 -14 112 -14 725 l0 725 -50 0 -50 0 0 -760z"/>
<path d="M6330 4526 l0 -724 -62 -6 c-275 -28 -346 -43 -495 -101 -224 -88
-328 -150 -364 -217 -10 -18 140 31 464 151 148 55 292 85 462 97 l95 7 0 758
0 759 -50 0 -50 0 0 -724z"/>
<path d="M7977 5100 l-48 -150 -162 -2 -162 -3 124 -89 c67 -49 125 -95 128
-102 2 -7 -16 -76 -42 -154 -25 -78 -45 -144 -43 -146 2 -2 60 37 127 86 68
50 127 90 132 90 5 0 64 -40 131 -89 67 -50 124 -88 126 -86 2 1 -17 67 -42
146 -25 79 -46 147 -46 151 0 4 59 50 131 102 l131 96 -165 0 -165 0 -48 150
c-26 83 -50 150 -53 150 -3 0 -28 -68 -54 -150z"/>
<path d="M7371 4283 c-202 -843 -862 -1510 -1699 -1717 -199 -49 -343 -66
-564 -66 -515 0 -987 158 -1403 470 -129 97 -351 318 -444 443 -193 259 -341
567 -407 851 -10 43 -24 80 -30 83 -12 4 -1063 -272 -1073 -282 -7 -8 49 -209
100 -362 238 -702 718 -1327 1340 -1743 428 -287 899 -469 1429 -552 130 -20
181 -22 490 -22 380 0 478 9 770 76 1083 246 1983 1009 2417 2048 66 157 192
564 179 577 -2 2 -239 67 -527 144 -288 77 -531 142 -540 144 -12 4 -20 -15
-38 -92z m-3058 -1937 c62 -19 129 -37 149 -41 33 -5 38 -10 44 -42 4 -20 3
-48 -2 -62 -8 -21 -16 -26 -44 -26 -27 0 -36 5 -38 20 -6 31 -30 52 -77 69
l-44 14 -22 -65 c-22 -68 -20 -77 23 -87 20 -5 32 -1 47 15 19 21 22 21 45 6
l24 -16 -21 -65 c-22 -68 -31 -78 -66 -69 -14 4 -21 13 -21 30 0 18 -9 28 -32
38 -18 7 -36 11 -40 7 -7 -8 -50 -144 -46 -147 2 -1 18 -7 37 -14 55 -18 83
-13 116 19 29 28 34 29 63 19 18 -6 32 -18 32 -26 0 -17 -56 -119 -69 -128 -5
-2 -21 2 -37 9 -16 8 -93 33 -171 57 -138 42 -157 53 -146 87 3 6 16 12 29 12
13 0 24 1 24 3 0 2 25 81 55 177 48 155 53 176 40 190 -8 9 -15 21 -15 26 0
16 24 35 38 29 7 -2 63 -20 125 -39z m1737 29 c11 -13 11 -20 0 -40 -12 -22
-7 -41 40 -177 60 -173 72 -198 101 -198 15 0 20 -5 17 -22 -2 -18 -19 -29
-73 -50 -38 -15 -80 -27 -91 -28 -28 0 -39 28 -20 49 12 14 7 37 -47 191 -53
149 -65 175 -84 178 -25 4 -38 31 -23 46 9 9 144 64 161 65 4 1 12 -6 19 -14z
m-250 -112 c17 -26 29 -51 27 -56 -1 -5 -14 -16 -29 -24 -24 -15 -27 -15 -53
5 -15 12 -40 22 -55 22 -47 0 -89 -12 -85 -24 2 -6 9 -37 15 -68 9 -48 15 -58
31 -58 31 0 59 19 59 40 0 24 15 33 45 26 19 -5 26 -16 34 -56 16 -72 14 -88
-11 -101 -19 -10 -24 -9 -36 10 -15 22 -75 30 -87 11 -7 -11 14 -131 25 -144
13 -13 90 4 111 25 11 11 22 33 26 50 6 31 8 33 55 43 26 6 27 4 33 -48 9 -68
-1 -116 -23 -116 -9 0 -90 -14 -180 -32 -162 -33 -164 -33 -178 -13 -13 18
-13 21 6 29 26 12 26 18 -10 199 -36 178 -43 197 -70 197 -28 0 -26 38 3 50
12 5 78 21 146 35 68 14 131 30 140 35 26 15 30 13 61 -37z m-1070 -18 c52 -8
116 -15 141 -15 53 0 59 -8 59 -75 0 -30 -5 -45 -16 -49 -31 -12 -55 -6 -66
18 -12 27 -25 35 -80 46 l-36 7 -11 -75 c-13 -83 -9 -92 42 -92 20 0 30 7 37
25 11 29 11 29 45 13 25 -11 26 -14 19 -67 -9 -75 -19 -91 -54 -91 -24 0 -29
5 -32 27 -2 22 -10 29 -38 34 -19 4 -36 7 -37 5 -1 -1 -7 -32 -13 -70 -12 -77
-5 -96 39 -96 41 0 55 -13 41 -39 -12 -24 1 -24 -180 3 -71 10 -75 12 -78 39
-3 22 1 27 18 27 11 0 23 6 25 13 10 29 52 352 48 364 -3 7 -11 13 -19 13 -15
0 -17 10 -8 34 8 20 32 20 154 1z m551 -36 c78 -26 111 -88 89 -167 -8 -32
-19 -47 -49 -64 l-38 -22 29 -24 c16 -14 40 -48 54 -76 14 -28 38 -61 52 -73
22 -19 25 -26 16 -40 -25 -40 -110 -42 -151 -3 -12 10 -28 40 -38 67 -33 94
-46 113 -77 113 -28 0 -28 0 -28 -64 0 -63 14 -96 41 -96 6 0 9 -10 7 -22 -3
-22 -7 -23 -103 -23 -94 0 -100 1 -103 21 -2 15 3 23 17 27 19 5 21 13 21 90
0 46 -3 132 -7 191 -6 100 -8 108 -29 116 -16 6 -21 15 -17 29 4 15 15 21 47
24 95 8 235 6 267 -4z"/>
<path d="M5134 2123 c3 -21 6 -62 6 -90 0 -52 0 -53 30 -53 48 0 80 39 80 95
0 59 -25 85 -81 85 l-42 0 7 -37z"/>
<path d="M3880 3234 c0 -11 9 -29 20 -39 17 -15 20 -16 20 -3 0 9 -9 26 -20
39 -19 23 -19 23 -20 3z"/>
<path d="M6317 3230 c-25 -36 -23 -60 4 -33 12 11 19 29 17 39 -3 17 -5 17
-21 -6z"/>
<path d="M3941 3227 c-7 -9 -11 -28 -9 -41 5 -22 3 -23 -24 -14 -40 14 -62 -6
-26 -23 45 -20 87 22 76 77 -3 16 -4 16 -17 1z"/>
<path d="M6260 3206 c0 -27 31 -66 53 -66 7 0 22 6 33 14 18 14 18 15 1 22
-10 3 -28 2 -40 -3 -20 -9 -22 -8 -22 20 0 17 -6 32 -12 34 -8 3 -13 -5 -13
-21z"/>
<path d="M3995 3168 c-4 -15 -4 -36 0 -47 7 -24 9 -24 -33 -12 -18 6 -30 6
-27 1 3 -4 -1 -11 -7 -13 -18 -7 10 -27 38 -27 43 0 71 68 45 109 -8 12 -11 9
-16 -11z"/>
<path d="M6206 3175 c-26 -68 30 -132 84 -94 11 8 12 12 2 16 -6 2 -10 9 -7
13 3 5 -9 5 -27 -1 -18 -5 -34 -9 -35 -9 -1 0 0 13 3 29 3 16 2 37 -3 46 -9
16 -10 16 -17 0z"/>
<path d="M5365 3144 c-62 -21 -95 -73 -81 -129 12 -47 103 -131 122 -113 2 3
-1 20 -8 39 -12 36 -43 68 -68 69 -10 1 -9 4 5 10 19 8 19 9 1 9 -15 1 -12 7
16 29 30 23 67 86 56 97 -1 2 -21 -3 -43 -11z"/>
<path d="M4675 3128 c11 -38 34 -68 61 -80 32 -15 30 -21 -10 -49 -41 -28 -66
-89 -35 -89 26 0 82 52 95 88 21 55 -25 126 -94 147 -22 6 -23 5 -17 -17z"/>
<path d="M4821 3120 c6 -16 26 -43 44 -59 28 -24 31 -30 17 -34 -14 -4 -13 -5
3 -6 18 -1 18 -2 -4 -14 -27 -14 -56 -51 -66 -84 -9 -33 17 -30 60 8 40 36 65
77 65 109 0 53 -57 110 -109 110 -18 0 -19 -3 -10 -30z"/>
<path d="M5503 3135 c-79 -34 -94 -133 -29 -192 20 -18 45 -33 56 -33 24 0 24
-1 6 41 -8 19 -28 42 -45 52 -37 22 -39 30 -7 45 26 12 50 42 61 80 7 25 2 26
-42 7z"/>
<path d="M4060 3114 c0 -14 5 -34 10 -45 10 -17 7 -19 -22 -20 -18 -1 -37 0
-43 1 -5 1 -7 -2 -3 -6 4 -4 3 -13 -3 -21 -9 -10 -4 -13 28 -13 64 0 89 44 61
105 -15 32 -28 32 -28 -1z"/>
<path d="M4547 3124 c3 -9 0 -20 -8 -26 -11 -8 -11 -9 0 -6 7 2 29 -12 48 -31
l34 -34 -35 -31 c-18 -18 -39 -31 -45 -30 -7 2 -7 0 -1 -3 5 -2 10 -13 10 -24
0 -26 23 -24 58 6 61 51 58 129 -7 172 -40 27 -63 30 -54 7z"/>
<path d="M5619 3117 c-65 -43 -68 -121 -7 -172 34 -29 71 -34 61 -9 -3 9 0 20
8 26 11 8 11 9 0 6 -7 -2 -29 10 -47 28 l-35 31 34 34 c19 19 41 33 48 31 11
-3 11 -2 0 6 -8 6 -11 17 -8 26 9 23 -14 20 -54 -7z"/>
<path d="M6132 3115 c-27 -59 -1 -105 59 -105 21 0 39 5 39 10 0 6 -5 10 -11
10 -5 0 -7 5 -4 10 4 6 3 10 -2 9 -4 -1 -23 -1 -41 0 -29 1 -32 3 -22 20 12
24 13 71 2 71 -5 0 -14 -11 -20 -25z"/>
<path d="M4430 3111 c0 -11 -5 -22 -10 -24 -6 -3 -5 -4 2 -3 6 1 19 -5 29 -15
9 -9 25 -21 35 -27 16 -9 14 -13 -19 -45 -41 -38 -51 -79 -17 -70 29 8 68 51
75 83 7 33 -14 81 -47 104 -30 21 -48 20 -48 -3z"/>
<path d="M5742 3114 c-32 -22 -54 -71 -47 -103 6 -30 47 -74 79 -85 16 -6 18
-3 12 26 -3 18 -12 36 -19 40 -6 3 -21 14 -32 23 -16 13 -17 17 -6 22 8 3 25
16 36 27 12 12 28 20 36 18 12 -3 12 -2 0 6 -8 6 -11 17 -8 26 8 21 -21 21
-51 0z"/>
<path d="M4127 3100 c-3 -10 6 -29 20 -45 14 -14 23 -28 22 -29 -12 -10 -67
-35 -71 -31 -2 2 -4 -5 -5 -15 -1 -16 5 -20 28 -20 60 0 87 62 52 121 -21 35
-40 43 -46 19z"/>
<path d="M4207 3098 c-4 -12 -4 -24 -2 -27 3 -2 5 1 5 7 0 6 14 -3 30 -20 l30
-30 -30 -28 c-16 -15 -31 -25 -34 -23 -3 3 -2 -4 1 -16 9 -36 53 -19 78 29 22
42 19 58 -19 96 -40 40 -52 42 -59 12z"/>
<path d="M4316 3109 c3 -6 0 -15 -7 -20 -12 -7 -11 -9 1 -9 8 0 28 -12 43 -26
l29 -24 -30 -28 c-16 -15 -36 -26 -43 -24 -12 3 -11 2 0 -6 8 -6 11 -17 8 -26
-11 -28 23 -18 59 18 19 19 34 44 34 55 0 30 -26 78 -49 91 -26 13 -54 13 -45
-1z"/>
<path d="M5010 3087 c0 -19 7 -56 15 -82 17 -57 13 -66 -24 -59 -20 4 -35 -1
-59 -21 -18 -15 -32 -31 -32 -36 0 -13 69 -10 112 5 27 10 40 10 48 2 8 -8 10
-7 5 5 -3 8 1 29 10 45 19 37 19 68 -1 110 -15 32 -48 64 -66 64 -5 0 -8 -15
-8 -33z"/>
<path d="M5177 3109 c-22 -13 -57 -81 -57 -111 0 -13 7 -36 15 -52 9 -16 13
-37 10 -45 -5 -12 -3 -13 5 -5 8 8 21 8 48 -2 43 -15 112 -18 112 -5 0 5 -14
21 -32 36 -24 20 -39 25 -59 21 -37 -7 -41 2 -24 59 16 51 20 115 8 115 -5 0
-16 -5 -26 -11z"/>
<path d="M5857 3109 c-21 -13 -47 -61 -47 -90 0 -25 61 -89 85 -89 12 0 15 5
11 17 -4 9 -1 20 6 25 10 8 10 9 -1 6 -7 -2 -27 9 -43 24 l-30 28 29 24 c15
14 35 26 43 26 12 0 13 2 1 9 -7 5 -10 14 -7 20 9 14 -23 14 -47 0z"/>
<path d="M5962 3095 c-38 -32 -47 -67 -27 -105 25 -48 69 -65 78 -29 3 12 4
19 1 16 -3 -2 -18 8 -34 23 l-30 28 30 30 c16 17 30 26 30 20 0 -6 2 -9 5 -7
7 7 -6 49 -15 49 -5 0 -22 -11 -38 -25z"/>
<path d="M6074 3112 c-22 -15 -44 -58 -44 -84 0 -36 32 -68 69 -68 24 0 28 4
28 28 0 15 -2 22 -4 16 -3 -9 -13 -8 -36 4 -18 8 -34 16 -36 18 -1 1 8 15 22
29 15 17 23 35 20 46 -3 10 -6 19 -7 19 0 0 -6 -4 -12 -8z"/>
<path d="M4660 3100 c0 -5 5 -10 11 -10 5 0 7 5 4 10 -3 6 -8 10 -11 10 -2 0
-4 -4 -4 -10z"/>
<path d="M4800 3100 c0 -5 5 -10 10 -10 6 0 10 5 10 10 0 6 -4 10 -10 10 -5 0
-10 -4 -10 -10z"/>
<path d="M5400 3100 c0 -5 5 -10 10 -10 6 0 10 5 10 10 0 6 -4 10 -10 10 -5 0
-10 -4 -10 -10z"/>
<path d="M5545 3100 c-3 -5 -1 -10 4 -10 6 0 11 5 11 10 0 6 -2 10 -4 10 -3 0
-8 -4 -11 -10z"/>
<path d="M4976 3081 c-3 -5 1 -11 9 -15 8 -3 15 -1 15 4 0 13 -18 22 -24 11z"/>
<path d="M5225 3079 c-9 -14 -2 -20 14 -10 8 6 9 11 3 15 -6 3 -14 1 -17 -5z"/>
<path d="M5005 2970 c10 -11 20 -20 23 -20 3 0 -3 9 -13 20 -10 11 -20 20 -23
20 -3 0 3 -9 13 -20z"/>
<path d="M5199 2963 c-13 -16 -12 -17 4 -4 16 13 21 21 13 21 -2 0 -10 -8 -17
-17z"/>
<path d="M4660 2959 c0 -5 5 -7 10 -4 6 3 10 8 10 11 0 2 -4 4 -10 4 -5 0 -10
-5 -10 -11z"/>
<path d="M4800 2959 c0 -5 5 -7 10 -4 6 3 10 8 10 11 0 2 -4 4 -10 4 -5 0 -10
-5 -10 -11z"/>
<path d="M5405 2960 c3 -5 8 -10 11 -10 2 0 4 5 4 10 0 6 -5 10 -11 10 -5 0
-7 -4 -4 -10z"/>
<path d="M4920 2939 c0 -5 5 -7 10 -4 6 3 10 8 10 11 0 2 -4 4 -10 4 -5 0 -10
-5 -10 -11z"/>
<path d="M5285 2940 c3 -5 8 -10 11 -10 2 0 4 5 4 10 0 6 -5 10 -11 10 -5 0
-7 -4 -4 -10z"/>
<path d="M5120 2870 c-9 -6 -10 -10 -3 -10 6 0 15 5 18 10 8 12 4 12 -15 0z"/>
</g>
</svg>
